<svg version="1.2" xmlns="http://www.w3.org/2000/svg" viewBox="0 0 1122 534" width="1122" height="534"><style>.a{fill:#1a1a1a}</style><path fill-rule="evenodd" d="m565.8 264.5c-39.8 0-72-32.2-72-72 0-39.8 32.2-72 72-72 39.8 0 72 32.2 72 72 0 39.8-32.2 72-72 72z"/><path fill-rule="evenodd" class="a" d="m565.8 254.2c-34.1 0-61.7-27.6-61.7-61.7 0-34.1 27.6-61.7 61.7-61.7 34.1 0 61.7 27.6 61.7 61.7 0 34.1-27.6 61.7-61.7 61.7z"/><path fill-rule="evenodd" d="m720.8 198.5c-39.8 0-72-32.2-72-72 0-39.8 32.2-72 72-72 39.8 0 72 32.2 72 72 0 39.8-32.2 72-72 72z"/><path fill-rule="evenodd" class="a" d="m720.8 188.2c-34.1 0-61.7-27.6-61.7-61.7 0-34.1 27.6-61.7 61.7-61.7 34.1 0 61.7 27.6 61.7 61.7 0 34.1-27.6 61.7-61.7 61.7z"/><path fill-rule="evenodd" d="m888.8 226.5c-39.8 0-72-32.2-72-72 0-39.8 32.2-72 72-72 39.8 0 72 32.2 72 72 0 39.8-32.2 72-72 72z"/><path fill-rule="evenodd" class="a" d="m888.8 216.2c-34.1 0-61.7-27.6-61.7-61.7 0-34.1 27.6-61.7 61.7-61.7 34.1 0 61.7 27.6 61.7 61.7 0 34.1-27.6 61.7-61.7 61.7z"/><path fill-rule="evenodd" d="m1049.8 297.5c-39.8 0-72-32.2-72-72 0-39.8 32.2-72 72-72 39.8 0 72 32.2 72 72 0 39.8-32.2 72-72 72z"/><path fill-rule="evenodd" class="a" d="m1110.5 236.2c-5.9 33.6-37.8 56-71.4 50.1-33.6-6-56-37.9-50.1-71.5 5.9-33.6 37.9-56 71.5-50.1 33.6 5.9 56 37.9 50 71.5z"/><path fill-rule="evenodd" d="m1089.9 419.1c-6.4 39.3-43.3 65.9-82.6 59.5-39.3-6.4-65.9-43.3-59.5-82.6 6.4-39.3 43.3-65.9 82.6-59.5 39.3 6.3 65.9 43.3 59.5 82.6z"/><path fill-rule="evenodd" class="a" d="m1018.8 469.2c-34.1 0-61.7-27.6-61.7-61.7 0-34.1 27.6-61.7 61.7-61.7 34.1 0 61.7 27.6 61.7 61.7 0 34.1-27.6 61.7-61.7 61.7z"/><path fill-rule="evenodd" d="m857.8 408.5c-39.8 0-72-32.2-72-72 0-39.8 32.2-72 72-72 39.8 0 72 32.2 72 72 0 39.8-32.2 72-72 72z"/><path fill-rule="evenodd" class="a" d="m857.8 398.2c-34.1 0-61.7-27.6-61.7-61.7 0-34.1 27.6-61.7 61.7-61.7 34.1 0 61.7 27.6 61.7 61.7 0 34.1-27.6 61.7-61.7 61.7z"/><path fill-rule="evenodd" d="m688.8 380.5c-39.8 0-72-32.2-72-72 0-39.8 32.2-72 72-72 39.8 0 72 32.2 72 72 0 39.8-32.2 72-72 72z"/><path fill-rule="evenodd" class="a" d="m688.8 370.2c-34.1 0-61.7-27.6-61.7-61.7 0-34.1 27.6-61.7 61.7-61.7 34.1 0 61.7 27.6 61.7 61.7 0 34.1-27.6 61.7-61.7 61.7z"/><path fill-rule="evenodd" d="m532.8 445.5c-39.8 0-72-32.2-72-72 0-39.8 32.2-72 72-72 39.8 0 72 32.2 72 72 0 39.8-32.2 72-72 72z"/><path fill-rule="evenodd" class="a" d="m532.8 435.2c-34.1 0-61.7-27.6-61.7-61.7 0-34.1 27.6-61.7 61.7-61.7 34.1 0 61.7 27.6 61.7 61.7 0 34.1-27.6 61.7-61.7 61.7z"/><path fill-rule="evenodd" d="m303.8 365.5c-31.5 0-57-25.5-57-57 0-31.5 25.5-57 57-57 31.5 0 57 25.5 57 57 0 31.5-25.5 57-57 57z"/><path fill-rule="evenodd" d="m82.4 133.5c-22.7 0-41-18.3-41-41 0-22.7 18.3-41 41-41 22.7 0 41 18.3 41 41 0 22.7-18.3 41-41 41z"/><path fill-rule="evenodd" class="a" d="m82.4 127.6c-19.4 0-35.1-15.7-35.1-35.1 0-19.4 15.7-35.1 35.1-35.1 19.4 0 35.1 15.7 35.1 35.1 0 19.4-15.7 35.1-35.1 35.1z"/><path fill-rule="evenodd" d="m81.3 276.5c-22.7 0-41-18.3-41-41 0-22.7 18.3-41 41-41 22.7 0 41 18.3 41 41 0 22.7-18.3 41-41 41z"/><path fill-rule="evenodd" class="a" d="m81.3 270.6c-19.4 0-35.1-15.7-35.1-35.1 0-19.4 15.7-35.1 35.1-35.1 19.4 0 35.1 15.7 35.1 35.1 0 19.4-15.7 35.1-35.1 35.1z"/></svg>